<?xml version="1.0" encoding="UTF-8" standalone="no"?>
<!-- Created with Inkscape (http://www.inkscape.org/) -->

<svg
   width="7680.0px"
   height="4320.0px"
   viewBox="0 0 7680.0 4320.0"
   version="1.1"
   id="SVGRoot"
   sodipodi:docname="absract cubes.svg"
   inkscape:version="1.1.1 (3bf5ae0d25, 2021-09-20)"
   xmlns:inkscape="http://www.inkscape.org/namespaces/inkscape"
   xmlns:sodipodi="http://sodipodi.sourceforge.net/DTD/sodipodi-0.dtd"
   xmlns="http://www.w3.org/2000/svg"
   xmlns:svg="http://www.w3.org/2000/svg">
  <sodipodi:namedview
     id="namedview6461"
     pagecolor="#ffffff"
     bordercolor="#666666"
     borderopacity="1.0"
     inkscape:pageshadow="2"
     inkscape:pageopacity="0.0"
     inkscape:pagecheckerboard="0"
     inkscape:document-units="px"
     showgrid="false"
     inkscape:zoom="0.14253648"
     inkscape:cx="1206.7087"
     inkscape:cy="2245.0394"
     inkscape:window-width="3840"
     inkscape:window-height="2160"
     inkscape:window-x="1920"
     inkscape:window-y="0"
     inkscape:window-maximized="1"
     inkscape:current-layer="layer1" />
  <defs
     id="defs6456">
    <inkscape:perspective
       sodipodi:type="inkscape:persp3d"
       inkscape:vp_x="0 : 2160 : 1"
       inkscape:vp_y="0 : 1000 : 0"
       inkscape:vp_z="7680 : 2160 : 1"
       inkscape:persp3d-origin="3840 : 1440 : 1"
       id="perspective6517" />
  </defs>
  <g
     inkscape:label="Layer 1"
     inkscape:groupmode="layer"
     id="layer1">
    <g
       sodipodi:type="inkscape:box3d"
       id="g6519"
       style="fill:#32da2a"
       inkscape:perspectiveID="#perspective6517"
       inkscape:corner0="0.52708956 : 2.6972421 : 0 : 1"
       inkscape:corner7="-0.029220356 : 0.76553108 : 0.25 : 1">
      <path
         sodipodi:type="inkscape:box3dside"
         id="path6531"
         style="fill:#e9e9ff;fill-rule:evenodd;stroke:none;stroke-linejoin:round"
         inkscape:box3dsidetype="11"
         d="M 3241.2548,1047.3706 4718.2962,540.3448 v 1582.3585 l -1477.0414,11.6755 z"
         points="4718.2962,540.3448 4718.2962,2122.7033 3241.2548,2134.3788 3241.2548,1047.3706 " />
      <path
         sodipodi:type="inkscape:box3dside"
         id="path6521"
         style="fill:#353564;fill-rule:evenodd;stroke:none;stroke-linejoin:round"
         inkscape:box3dsidetype="6"
         d="M 2514.5873,865.22191 V 2130.1844 l 726.6675,4.1944 V 1047.3706 Z"
         points="2514.5873,2130.1844 3241.2548,2134.3788 3241.2548,1047.3706 2514.5873,865.22191 " />
      <path
         sodipodi:type="inkscape:box3dside"
         id="path6523"
         style="fill:#4d4d9f;fill-rule:evenodd;stroke:none;stroke-linejoin:round"
         inkscape:box3dsidetype="5"
         d="M 2514.5873,865.22191 3955.5836,123.24314 4718.2962,540.3448 3241.2548,1047.3706 Z"
         points="3955.5836,123.24314 4718.2962,540.3448 3241.2548,1047.3706 2514.5873,865.22191 " />
      <path
         sodipodi:type="inkscape:box3dside"
         id="path6529"
         style="fill:#afafde;fill-rule:evenodd;stroke:none;stroke-linejoin:round"
         inkscape:box3dsidetype="13"
         d="m 2514.5873,2130.1844 1440.9963,-17.086 762.7126,9.6049 -1477.0414,11.6755 z"
         points="3955.5836,2113.0984 4718.2962,2122.7033 3241.2548,2134.3788 2514.5873,2130.1844 " />
      <path
         sodipodi:type="inkscape:box3dside"
         id="path6527"
         style="fill:#d7d7ff;fill-rule:evenodd;stroke:none;stroke-linejoin:round"
         inkscape:box3dsidetype="14"
         d="M 3955.5836,123.24314 V 2113.0984 l 762.7126,9.6049 V 540.3448 Z"
         points="3955.5836,2113.0984 4718.2962,2122.7033 4718.2962,540.3448 3955.5836,123.24314 " />
      <path
         sodipodi:type="inkscape:box3dside"
         id="path6525"
         style="fill:#8686bf;fill-rule:evenodd;stroke:none;stroke-linejoin:round"
         inkscape:box3dsidetype="3"
         d="M 2514.5873,865.22191 3955.5836,123.24314 V 2113.0984 l -1440.9963,17.086 z"
         points="3955.5836,123.24314 3955.5836,2113.0984 2514.5873,2130.1844 2514.5873,865.22191 " />
    </g>
    <g
       sodipodi:type="inkscape:box3d"
       id="g6533"
       style="fill:#32da2a"
       inkscape:perspectiveID="#perspective6517"
       inkscape:corner0="0.22181846 : 0.2401773 : 0 : 1"
       inkscape:corner7="-0.14201123 : -0.80870186 : 0.25 : 1">
      <path
         sodipodi:type="inkscape:box3dside"
         id="path6545"
         style="fill:#e9e9ff;fill-rule:evenodd;stroke:none;stroke-linejoin:round"
         inkscape:box3dsidetype="11"
         d="m 3913.5261,2486.0067 1285.0825,107.0507 v 946.6514 L 3913.5261,3198.6484 Z"
         points="5198.6086,2593.0574 5198.6086,3539.7088 3913.5261,3198.6484 3913.5261,2486.0067 " />
      <path
         sodipodi:type="inkscape:box3dside"
         id="path6535"
         style="fill:#353564;fill-rule:evenodd;stroke:none;stroke-linejoin:round"
         inkscape:box3dsidetype="6"
         d="m 3142.8564,2552.7119 v 858.4575 l 770.6697,-212.521 v -712.6417 z"
         points="3142.8564,3411.1694 3913.5261,3198.6484 3913.5261,2486.0067 3142.8564,2552.7119 " />
      <path
         sodipodi:type="inkscape:box3dside"
         id="path6543"
         style="fill:#afafde;fill-rule:evenodd;stroke:none;stroke-linejoin:round"
         inkscape:box3dsidetype="13"
         d="m 3142.8564,3411.1694 1332.7267,530.5577 723.0255,-402.0183 -1285.0825,-341.0604 z"
         points="4475.5831,3941.7271 5198.6086,3539.7088 3913.5261,3198.6484 3142.8564,3411.1694 " />
      <path
         sodipodi:type="inkscape:box3dside"
         id="path6537"
         style="fill:#4d4d9f;fill-rule:evenodd;stroke:none;stroke-linejoin:round"
         inkscape:box3dsidetype="5"
         d="m 3142.8564,2552.7119 1332.7267,166.5293 723.0255,-126.1838 -1285.0825,-107.0507 z"
         points="4475.5831,2719.2412 5198.6086,2593.0574 3913.5261,2486.0067 3142.8564,2552.7119 " />
      <path
         sodipodi:type="inkscape:box3dside"
         id="path6541"
         style="fill:#d7d7ff;fill-rule:evenodd;stroke:none;stroke-linejoin:round"
         inkscape:box3dsidetype="14"
         d="m 4475.5831,2719.2412 v 1222.4859 l 723.0255,-402.0183 v -946.6514 z"
         points="4475.5831,3941.7271 5198.6086,3539.7088 5198.6086,2593.0574 4475.5831,2719.2412 " />
      <path
         sodipodi:type="inkscape:box3dside"
         id="path6539"
         style="fill:#8686bf;fill-rule:evenodd;stroke:none;stroke-linejoin:round"
         inkscape:box3dsidetype="3"
         d="m 3142.8564,2552.7119 1332.7267,166.5293 V 3941.7271 L 3142.8564,3411.1694 Z"
         points="4475.5831,2719.2412 4475.5831,3941.7271 3142.8564,3411.1694 3142.8564,2552.7119 " />
    </g>
    <g
       sodipodi:type="inkscape:box3d"
       id="g6547"
       style="fill:#32da2a"
       inkscape:perspectiveID="#perspective6517"
       inkscape:corner0="-0.055242859 : 1.1980188 : 0 : 1"
       inkscape:corner7="-0.36681139 : 0.21911868 : 0.25 : 1">
      <path
         sodipodi:type="inkscape:box3dside"
         id="path6559"
         style="fill:#e9e9ff;fill-rule:evenodd;stroke:none;stroke-linejoin:round"
         inkscape:box3dsidetype="11"
         d="M 4821.0635,1759.903 6521.8232,1618.758 V 2727.1284 L 4821.0635,2579.2327 Z"
         points="6521.8232,1618.758 6521.8232,2727.1284 4821.0635,2579.2327 4821.0635,1759.903 " />
      <path
         sodipodi:type="inkscape:box3dside"
         id="path6549"
         style="fill:#353564;fill-rule:evenodd;stroke:none;stroke-linejoin:round"
         inkscape:box3dsidetype="6"
         d="m 4064.5366,1654.03 v 1036.1394 l 756.5269,-110.9367 V 1759.903 Z"
         points="4064.5366,2690.1694 4821.0635,2579.2327 4821.0635,1759.903 4064.5366,1654.03 " />
      <path
         sodipodi:type="inkscape:box3dside"
         id="path6557"
         style="fill:#afafde;fill-rule:evenodd;stroke:none;stroke-linejoin:round"
         inkscape:box3dsidetype="13"
         d="M 4064.5366,2690.1694 6064.5437,2951.046 6521.8232,2727.1284 4821.0635,2579.2327 Z"
         points="6064.5437,2951.046 6521.8232,2727.1284 4821.0635,2579.2327 4064.5366,2690.1694 " />
      <path
         sodipodi:type="inkscape:box3dside"
         id="path6551"
         style="fill:#4d4d9f;fill-rule:evenodd;stroke:none;stroke-linejoin:round"
         inkscape:box3dsidetype="5"
         d="m 4064.5366,1654.03 2000.0071,-248.969 457.2795,213.697 -1700.7597,141.145 z"
         points="6064.5437,1405.061 6521.8232,1618.758 4821.0635,1759.903 4064.5366,1654.03 " />
      <path
         sodipodi:type="inkscape:box3dside"
         id="path6555"
         style="fill:#d7d7ff;fill-rule:evenodd;stroke:none;stroke-linejoin:round"
         inkscape:box3dsidetype="14"
         d="m 6064.5437,1405.061 v 1545.985 l 457.2795,-223.9176 V 1618.758 Z"
         points="6064.5437,2951.046 6521.8232,2727.1284 6521.8232,1618.758 6064.5437,1405.061 " />
      <path
         sodipodi:type="inkscape:box3dside"
         id="path6553"
         style="fill:#8686bf;fill-rule:evenodd;stroke:none;stroke-linejoin:round"
         inkscape:box3dsidetype="3"
         d="M 4064.5366,1654.03 6064.5437,1405.061 V 2951.046 L 4064.5366,2690.1694 Z"
         points="6064.5437,1405.061 6064.5437,2951.046 4064.5366,2690.1694 4064.5366,1654.03 " />
    </g>
    <g
       sodipodi:type="inkscape:box3d"
       id="g6561"
       style="fill:#32da2a"
       inkscape:perspectiveID="#perspective6517"
       inkscape:corner0="4.6265017 : 5.4264334 : 0 : 1"
       inkscape:corner7="1.2820891 : -0.60867039 : 0.25 : 1">
      <path
         sodipodi:type="inkscape:box3dside"
         id="path6573"
         style="fill:#e9e9ff;fill-rule:evenodd;stroke:none;stroke-linejoin:round"
         inkscape:box3dsidetype="11"
         d="M 980.17499,1359.1097 2274.8015,301.28444 V 2684.7329 L 980.17499,2386.0989 Z"
         points="2274.8015,301.28444 2274.8015,2684.7329 980.17499,2386.0989 980.17499,1359.1097 " />
      <path
         sodipodi:type="inkscape:box3dside"
         id="path6563"
         style="fill:#353564;fill-rule:evenodd;stroke:none;stroke-linejoin:round"
         inkscape:box3dsidetype="6"
         d="m 682.48446,1323.524 v 1072.621 l 297.69053,-10.0461 V 1359.1097 Z"
         points="682.48446,2396.145 980.17499,2386.0989 980.17499,1359.1097 682.48446,1323.524 " />
      <path
         sodipodi:type="inkscape:box3dside"
         id="path6571"
         style="fill:#afafde;fill-rule:evenodd;stroke:none;stroke-linejoin:round"
         inkscape:box3dsidetype="13"
         d="m 682.48446,2396.145 1000.18424,346.0717 592.1328,-57.4838 -1294.62651,-298.634 z"
         points="1682.6687,2742.2167 2274.8015,2684.7329 980.17499,2386.0989 682.48446,2396.145 " />
      <path
         sodipodi:type="inkscape:box3dside"
         id="path6565"
         style="fill:#4d4d9f;fill-rule:evenodd;stroke:none;stroke-linejoin:round"
         inkscape:box3dsidetype="5"
         d="M 682.48446,1323.524 1682.6687,97.664485 2274.8015,301.28444 980.17499,1359.1097 Z"
         points="1682.6687,97.664485 2274.8015,301.28444 980.17499,1359.1097 682.48446,1323.524 " />
      <path
         sodipodi:type="inkscape:box3dside"
         id="path6569"
         style="fill:#d7d7ff;fill-rule:evenodd;stroke:none;stroke-linejoin:round"
         inkscape:box3dsidetype="14"
         d="M 1682.6687,97.664485 V 2742.2167 l 592.1328,-57.4838 V 301.28444 Z"
         points="1682.6687,2742.2167 2274.8015,2684.7329 2274.8015,301.28444 1682.6687,97.664485 " />
      <path
         sodipodi:type="inkscape:box3dside"
         id="path6567"
         style="fill:#8686bf;fill-rule:evenodd;stroke:none;stroke-linejoin:round"
         inkscape:box3dsidetype="3"
         d="M 682.48446,1323.524 1682.6687,97.664485 V 2742.2167 L 682.48446,2396.145 Z"
         points="1682.6687,97.664485 1682.6687,2742.2167 682.48446,2396.145 682.48446,1323.524 " />
    </g>
    <g
       sodipodi:type="inkscape:box3d"
       id="g6575"
       style="fill:#32da2a"
       inkscape:perspectiveID="#perspective6517"
       inkscape:corner0="10.377745 : 7.3910266 : 0 : 1"
       inkscape:corner7="2.880044 : -1.2667974 : 0.25 : 1">
      <path
         sodipodi:type="inkscape:box3dside"
         id="path6587"
         style="fill:#e9e9ff;fill-rule:evenodd;stroke:none;stroke-linejoin:round"
         inkscape:box3dsidetype="11"
         d="M 495.3669,1586.2837 1394.6583,544.75653 V 2641.0596 L 495.3669,2330.867 Z"
         points="1394.6583,544.75653 1394.6583,2641.0596 495.3669,2330.867 495.3669,1586.2837 " />
      <path
         sodipodi:type="inkscape:box3dside"
         id="path6577"
         style="fill:#353564;fill-rule:evenodd;stroke:none;stroke-linejoin:round"
         inkscape:box3dsidetype="6"
         d="m 337.50097,1573.6776 v 760.9438 l 157.86593,-3.7544 v -744.5833 z"
         points="337.50097,2334.6214 495.3669,2330.867 495.3669,1586.2837 337.50097,1573.6776 " />
      <path
         sodipodi:type="inkscape:box3dside"
         id="path6585"
         style="fill:#afafde;fill-rule:evenodd;stroke:none;stroke-linejoin:round"
         inkscape:box3dsidetype="13"
         d="m 337.50097,2334.6214 652.17853,337.434 404.9788,-30.9958 -899.2914,-310.1926 z"
         points="989.6795,2672.0554 1394.6583,2641.0596 495.3669,2330.867 337.50097,2334.6214 " />
      <path
         sodipodi:type="inkscape:box3dside"
         id="path6579"
         style="fill:#4d4d9f;fill-rule:evenodd;stroke:none;stroke-linejoin:round"
         inkscape:box3dsidetype="5"
         d="M 337.50097,1573.6776 989.6795,440.68274 1394.6583,544.75653 495.3669,1586.2837 Z"
         points="989.6795,440.68274 1394.6583,544.75653 495.3669,1586.2837 337.50097,1573.6776 " />
      <path
         sodipodi:type="inkscape:box3dside"
         id="path6583"
         style="fill:#d7d7ff;fill-rule:evenodd;stroke:none;stroke-linejoin:round"
         inkscape:box3dsidetype="14"
         d="M 989.6795,440.68274 V 2672.0554 l 404.9788,-30.9958 V 544.75653 Z"
         points="989.6795,2672.0554 1394.6583,2641.0596 1394.6583,544.75653 989.6795,440.68274 " />
      <path
         sodipodi:type="inkscape:box3dside"
         id="path6581"
         style="fill:#8686bf;fill-rule:evenodd;stroke:none;stroke-linejoin:round"
         inkscape:box3dsidetype="3"
         d="M 337.50097,1573.6776 989.6795,440.68274 V 2672.0554 l -652.17853,-337.434 z"
         points="989.6795,440.68274 989.6795,2672.0554 337.50097,2334.6214 337.50097,1573.6776 " />
    </g>
    <g
       sodipodi:type="inkscape:box3d"
       id="g6589"
       style="fill:#32da2a"
       inkscape:perspectiveID="#perspective6517"
       inkscape:corner0="0.03022185 : 1.4700693 : 0 : 1"
       inkscape:corner7="-0.41663744 : -0.26101099 : 0.25 : 1">
      <path
         sodipodi:type="inkscape:box3dside"
         id="path6601"
         style="fill:#e9e9ff;fill-rule:evenodd;stroke:none;stroke-linejoin:round"
         inkscape:box3dsidetype="11"
         d="M 4499.2202,1574.1099 6911.7576,1259.9484 V 3337.1719 L 4499.2202,2926.282 Z"
         points="6911.7576,1259.9484 6911.7576,3337.1719 4499.2202,2926.282 4499.2202,1574.1099 " />
      <path
         sodipodi:type="inkscape:box3dside"
         id="path6591"
         style="fill:#353564;fill-rule:evenodd;stroke:none;stroke-linejoin:round"
         inkscape:box3dsidetype="6"
         d="M 3727.3525,1431.9342 V 3112.2328 L 4499.2202,2926.282 V 1574.1099 Z"
         points="3727.3525,3112.2328 4499.2202,2926.282 4499.2202,1574.1099 3727.3525,1431.9342 " />
      <path
         sodipodi:type="inkscape:box3dside"
         id="path6599"
         style="fill:#afafde;fill-rule:evenodd;stroke:none;stroke-linejoin:round"
         inkscape:box3dsidetype="13"
         d="m 3727.3525,3112.2328 2855.1748,729.4161 329.2303,-504.477 -2412.5374,-410.8899 z"
         points="6582.5273,3841.6489 6911.7576,3337.1719 4499.2202,2926.282 3727.3525,3112.2328 " />
      <path
         sodipodi:type="inkscape:box3dside"
         id="path6593"
         style="fill:#4d4d9f;fill-rule:evenodd;stroke:none;stroke-linejoin:round"
         inkscape:box3dsidetype="5"
         d="M 3727.3525,1431.9342 6582.5273,874.23133 6911.7576,1259.9484 4499.2202,1574.1099 Z"
         points="6582.5273,874.23133 6911.7576,1259.9484 4499.2202,1574.1099 3727.3525,1431.9342 " />
      <path
         sodipodi:type="inkscape:box3dside"
         id="path6597"
         style="fill:#d7d7ff;fill-rule:evenodd;stroke:none;stroke-linejoin:round"
         inkscape:box3dsidetype="14"
         d="M 6582.5273,874.23133 V 3841.6489 l 329.2303,-504.477 V 1259.9484 Z"
         points="6582.5273,3841.6489 6911.7576,3337.1719 6911.7576,1259.9484 6582.5273,874.23133 " />
      <path
         sodipodi:type="inkscape:box3dside"
         id="path6595"
         style="fill:#8686bf;fill-rule:evenodd;stroke:none;stroke-linejoin:round"
         inkscape:box3dsidetype="3"
         d="M 3727.3525,1431.9342 6582.5273,874.23133 V 3841.6489 L 3727.3525,3112.2328 Z"
         points="6582.5273,874.23133 6582.5273,3841.6489 3727.3525,3112.2328 3727.3525,1431.9342 " />
    </g>
    <g
       sodipodi:type="inkscape:box3d"
       id="g6603"
       style="fill:#32da2a"
       inkscape:perspectiveID="#perspective6517"
       inkscape:corner0="7.9761651 : -2.4922654 : 0 : 1"
       inkscape:corner7="4.592703 : -10.781274 : 0.25 : 1">
      <path
         sodipodi:type="inkscape:box3dside"
         id="path6615"
         style="fill:#e9e9ff;fill-rule:evenodd;stroke:none;stroke-linejoin:round"
         inkscape:box3dsidetype="11"
         d="M 624.31139,2508.1691 985.84508,2709.791 V 4128.4851 L 624.31139,3406.5931 Z"
         points="985.84508,2709.791 985.84508,4128.4851 624.31139,3406.5931 624.31139,2508.1691 " />
      <path
         sodipodi:type="inkscape:box3dside"
         id="path6605"
         style="fill:#353564;fill-rule:evenodd;stroke:none;stroke-linejoin:round"
         inkscape:box3dsidetype="6"
         d="m 427.79962,2517.8661 v 923.4466 l 196.51177,-34.7196 v -898.424 z"
         points="427.79962,3441.3127 624.31139,3406.5931 624.31139,2508.1691 427.79962,2517.8661 " />
      <path
         sodipodi:type="inkscape:box3dside"
         id="path6613"
         style="fill:#afafde;fill-rule:evenodd;stroke:none;stroke-linejoin:round"
         inkscape:box3dsidetype="13"
         d="m 427.79962,3441.3127 258.80934,775.1659 299.23612,-87.9935 -361.53369,-721.892 z"
         points="686.60896,4216.4786 985.84508,4128.4851 624.31139,3406.5931 427.79962,3441.3127 " />
      <path
         sodipodi:type="inkscape:box3dside"
         id="path6607"
         style="fill:#4d4d9f;fill-rule:evenodd;stroke:none;stroke-linejoin:round"
         inkscape:box3dsidetype="5"
         d="M 427.79962,2517.8661 686.60896,2734.3672 985.84508,2709.791 624.31139,2508.1691 Z"
         points="686.60896,2734.3672 985.84508,2709.791 624.31139,2508.1691 427.79962,2517.8661 " />
      <path
         sodipodi:type="inkscape:box3dside"
         id="path6611"
         style="fill:#d7d7ff;fill-rule:evenodd;stroke:none;stroke-linejoin:round"
         inkscape:box3dsidetype="14"
         d="m 686.60896,2734.3672 v 1482.1114 l 299.23612,-87.9935 V 2709.791 Z"
         points="686.60896,4216.4786 985.84508,4128.4851 985.84508,2709.791 686.60896,2734.3672 " />
      <path
         sodipodi:type="inkscape:box3dside"
         id="path6609"
         style="fill:#8686bf;fill-rule:evenodd;stroke:none;stroke-linejoin:round"
         inkscape:box3dsidetype="3"
         d="m 427.79962,2517.8661 258.80934,216.5011 V 4216.4786 L 427.79962,3441.3127 Z"
         points="686.60896,2734.3672 686.60896,4216.4786 427.79962,3441.3127 427.79962,2517.8661 " />
    </g>
    <g
       sodipodi:type="inkscape:box3d"
       id="g6631"
       style="fill:#32da2a"
       inkscape:perspectiveID="#perspective6517"
       inkscape:corner0="1.3023615 : -2.0177141 : 0 : 1"
       inkscape:corner7="0.60019708 : -2.3275435 : 0.25 : 1">
      <path
         sodipodi:type="inkscape:box3dside"
         id="path6643"
         style="fill:#e9e9ff;fill-rule:evenodd;stroke:none;stroke-linejoin:round"
         inkscape:box3dsidetype="11"
         d="m 2256.7336,3232.62 856.4483,407.0678 v 167.4575 l -856.4483,-453.1359 z"
         points="3113.1819,3639.6878 3113.1819,3807.1453 2256.7336,3354.0094 2256.7336,3232.62 " />
      <path
         sodipodi:type="inkscape:box3dside"
         id="path6633"
         style="fill:#353564;fill-rule:evenodd;stroke:none;stroke-linejoin:round"
         inkscape:box3dsidetype="6"
         d="m 1667.8528,3349.0896 v 134.5703 l 588.8808,-129.6505 V 3232.62 Z"
         points="1667.8528,3483.6599 2256.7336,3354.0094 2256.7336,3232.62 1667.8528,3349.0896 " />
      <path
         sodipodi:type="inkscape:box3dside"
         id="path6641"
         style="fill:#afafde;fill-rule:evenodd;stroke:none;stroke-linejoin:round"
         inkscape:box3dsidetype="13"
         d="m 1667.8528,3483.6599 731.8516,580.8202 713.4775,-257.3348 -856.4483,-453.1359 z"
         points="2399.7044,4064.4801 3113.1819,3807.1453 2256.7336,3354.0094 1667.8528,3483.6599 " />
      <path
         sodipodi:type="inkscape:box3dside"
         id="path6635"
         style="fill:#4d4d9f;fill-rule:evenodd;stroke:none;stroke-linejoin:round"
         inkscape:box3dsidetype="5"
         d="m 1667.8528,3349.0896 731.8516,521.771 713.4775,-231.1728 -856.4483,-407.0678 z"
         points="2399.7044,3870.8606 3113.1819,3639.6878 2256.7336,3232.62 1667.8528,3349.0896 " />
      <path
         sodipodi:type="inkscape:box3dside"
         id="path6639"
         style="fill:#d7d7ff;fill-rule:evenodd;stroke:none;stroke-linejoin:round"
         inkscape:box3dsidetype="14"
         d="m 2399.7044,3870.8606 v 193.6195 l 713.4775,-257.3348 v -167.4575 z"
         points="2399.7044,4064.4801 3113.1819,3807.1453 3113.1819,3639.6878 2399.7044,3870.8606 " />
      <path
         sodipodi:type="inkscape:box3dside"
         id="path6637"
         style="fill:#8686bf;fill-rule:evenodd;stroke:none;stroke-linejoin:round"
         inkscape:box3dsidetype="3"
         d="m 1667.8528,3349.0896 731.8516,521.771 v 193.6195 l -731.8516,-580.8202 z"
         points="2399.7044,3870.8606 2399.7044,4064.4801 1667.8528,3483.6599 1667.8528,3349.0896 " />
    </g>
    <path
       style="fill:#ffcc00;stroke-width:3.50787"
       d="m 2401.1398,3966.5683 v -94.3103 l 262.2135,-85.1468 c 144.2175,-46.8307 303.127,-98.4302 353.1323,-114.6654 50.0053,-16.2353 92.2314,-29.5186 93.8356,-29.5186 1.6044,0 2.8811,36.7011 2.8373,81.558 l -0.08,81.5581 -350.7493,126.2835 c -192.9122,69.4559 -353.0985,126.7938 -355.9696,127.4176 -4.5204,0.9821 -5.2202,-11.5091 -5.2202,-93.1761 z"
       id="path6803" />
    <path
       style="fill:#ffcc00;stroke-width:3.50787"
       d="m 4477.8012,3621.8999 c 0,-299.4755 0.3247,-316.1084 6.1388,-314.4429 12.8177,3.6719 709.691,181.1237 711.293,181.1237 0.9253,0 1.6399,11.4444 1.588,25.4321 l -0.094,25.4321 -328.4492,182.4094 c -180.647,100.3252 -342.4053,190.0229 -359.4627,199.3283 l -31.0136,16.9188 z"
       id="path6842" />
    <path
       style="fill:#ffcc00;stroke-width:3.50787"
       d="m 6582.5256,2357.4083 c 0,-813.9203 0.6227,-1479.19742 1.3838,-1478.39354 0.7611,0.80389 74.1481,86.70296 163.0821,190.88684 l 161.6982,189.4252 0.9111,1038.3307 0.911,1038.3307 -101.8951,156.1004 c -56.0423,85.8552 -128.5253,197.1425 -161.0734,247.3051 -32.548,50.1626 -60.4922,92.7043 -62.098,94.5372 -1.6058,1.8329 -2.9197,-662.6023 -2.9197,-1476.5226 z"
       id="path6881" />
    <path
       style="fill:#ffcc00;stroke-width:3.50787"
       d="M 3958.6358,755.89634 V 127.93641 l 20.1703,10.41902 c 11.0937,5.73047 181.1817,98.56835 377.9734,206.30641 l 357.8032,195.88737 0.894,347.91709 0.8939,347.9171 -7.9097,1.8863 c -13.0022,3.1009 -744.231,145.5866 -747.1422,145.5866 -1.4756,0 -2.6829,-282.582 -2.6829,-627.95996 z"
       id="path6920" />
    <path
       style="fill:#ffcc00;stroke-width:3.50787"
       d="M 1685.5335,1420.8688 V 100.20028 l 55.249,19.20649 c 30.3869,10.56357 162.5899,56.11731 293.7844,101.23054 l 238.5355,82.02404 0.8756,1190.43115 0.8756,1190.4311 -286.7674,27.3659 c -157.722,15.0512 -290.319,28.1043 -294.66,29.0068 l -7.8927,1.6409 z"
       id="path6959" />
    <path
       style="fill:#ffcc00;stroke-width:3.50787"
       d="m 990.97441,1557.5267 c 0,-612.57935 0.89899,-1113.78064 1.99777,-1113.78064 1.09877,0 90.88512,22.88888 199.52532,50.86418 108.6401,27.97529 198.5074,50.86417 199.705,50.86417 1.1976,0 2.1774,471.19519 2.1774,1047.10039 0,575.9052 -0.6931,1047.1004 -1.5403,1047.1004 -5.4429,0 -368.5924,28.1127 -383.4489,29.6842 l -18.41629,1.9479 z"
       id="path6998" />
    <path
       style="fill:#ffcc00;stroke-width:3.50787"
       d="m 689.29724,3474.1657 c 0,-728.9721 0.0991,-739.7779 6.78285,-739.7779 8.19521,0 256.08232,-20.1648 274.73255,-22.3485 l 13.16302,-1.5413 -0.88546,708.7024 -0.88548,708.7023 -82.43504,24.2145 c -45.33927,13.318 -111.24345,32.6772 -146.45374,43.0204 l -64.0187,18.8059 z"
       id="path7037" />
    <path
       style="fill:#d4aa00;stroke-width:3.50787"
       d="m 556.86189,3822.6849 -127.17354,-381.575 0.89008,-458.8177 0.89007,-458.8176 92.95867,77.5576 c 111.16023,92.7438 102.91399,85.9605 105.93779,87.1434 1.35053,0.5283 7.66471,6.0495 14.0315,12.2693 6.36679,6.2197 18.29311,16.796 26.50294,23.5027 l 14.92696,12.1941 -0.89547,734.0592 -0.89546,734.0591 z"
       id="path7150" />
    <path
       style="fill:#d4aa00;stroke-width:3.50787"
       d="M 660.35728,2500.1367 338.50984,2333.2121 v -379.1617 -379.1617 l 15.94116,-27.9896 c 8.76764,-15.3943 17.48136,-30.3575 19.36383,-33.2515 1.88247,-2.894 5.86723,-9.9974 8.85502,-15.7854 2.98779,-5.788 9.23892,-16.8378 13.89141,-24.5551 4.65248,-7.7173 10.43141,-17.9779 12.84207,-22.8012 2.41065,-4.8233 5.37726,-9.559 6.59246,-10.5236 2.15099,-1.7075 22.29482,-36.7351 33.28585,-57.8799 3.00859,-5.788 8.9134,-16.2844 13.12182,-23.3253 14.89654,-24.9227 53.87672,-92.5093 56.34585,-97.6964 1.37758,-2.894 6.34444,-11.576 11.03746,-19.2933 4.69302,-7.7173 10.50512,-17.9779 12.91577,-22.8012 2.41065,-4.8233 5.2354,-9.5589 6.27722,-10.5236 1.95879,-1.8137 31.94741,-53.8257 36.40574,-63.1417 1.38496,-2.894 6.35786,-11.576 11.05088,-19.2933 4.69301,-7.7174 10.50511,-17.9779 12.91577,-22.8012 2.41065,-4.8233 5.29728,-9.559 6.41474,-10.5236 1.11745,-0.9647 8.25303,-12.7672 15.85683,-26.2277 7.6038,-13.4605 16.52667,-29.246 19.82859,-35.0787 3.30193,-5.8328 8.54067,-15.3407 11.64165,-21.1287 3.10098,-5.788 9.0814,-16.35611 13.28981,-23.48474 22.23716,-37.66752 54.16821,-92.93457 56.35285,-97.5369 1.37375,-2.89399 5.97412,-11.02637 10.22306,-18.07197 19.2127,-31.85837 43.38255,-73.66596 53.43348,-92.42606 3.101,-5.78799 9.0814,-16.29036 13.28983,-23.33859 4.2084,-7.04823 15.22081,-25.99075 24.47202,-42.09449 9.25117,-16.10373 18.35954,-31.64733 20.24078,-34.54133 1.88124,-2.89399 5.86499,-9.99744 8.85279,-15.78543 2.98779,-5.78799 9.23893,-16.8378 13.89142,-24.55512 4.6525,-7.71732 10.4314,-17.97785 12.84205,-22.80118 2.41068,-4.82333 5.29117,-9.55896 6.40113,-10.52362 2.01363,-1.75005 31.57627,-53.16444 36.30576,-63.14173 1.37179,-2.894 6.33396,-11.57599 11.02697,-19.29331 4.69301,-7.71732 10.5051,-17.97786 12.91575,-22.80118 2.41068,-4.82333 5.387,-9.55896 6.61409,-10.52363 1.22709,-0.96466 5.53918,-8.06811 9.58239,-15.78543 4.04321,-7.71732 8.96669,-16.39931 10.94113,-19.29331 2.45144,-3.59321 3.60687,346.53372 3.64356,1104.10332 0.0281,610.1509 -1.1302,1109.2129 -2.5772,1109.0268 -1.447,-0.1863 -147.46225,-75.4545 -324.47835,-167.2631 z"
       id="path7226" />
    <path
       style="fill:#d4aa00;stroke-width:3.50787"
       d="m 1535.5776,2689.7276 -137.6783,-47.7766 -0.8827,-1049.1152 -0.8827,-1049.11533 -29.3172,-7.68522 c -16.1244,-4.22689 -30.03,-8.39817 -30.9014,-9.26953 -0.8713,-0.87132 4.8142,-8.46278 12.6346,-16.86985 7.8203,-8.40711 15.1235,-18.04808 16.2293,-21.42441 1.1058,-3.37633 3.1583,-6.13878 4.5612,-6.13878 1.4028,0 8.7733,-8.28736 16.3788,-18.41634 7.6055,-10.12899 14.9015,-19.21729 16.2133,-20.19623 1.3118,-0.97894 7.3341,-8.08239 13.3829,-15.78543 20.4208,-26.00541 26.3761,-33.2117 41.2732,-49.94278 8.1689,-9.17448 15.7733,-19.44333 16.8988,-22.81966 1.1255,-3.37632 3.1942,-6.13878 4.5971,-6.13878 1.4028,0 8.7733,-8.28735 16.3788,-18.41633 7.6055,-10.12899 14.9015,-19.21729 16.2133,-20.19623 1.3118,-0.97894 7.3341,-8.08239 13.3829,-15.78543 20.4208,-26.00541 26.3761,-33.2117 41.2732,-49.94278 8.1689,-9.17448 15.7733,-19.44333 16.8988,-22.81966 1.1255,-3.37633 3.1942,-6.13878 4.5971,-6.13878 1.4028,0 8.7733,-8.28735 16.3788,-18.41634 7.6055,-10.12898 14.8457,-19.20561 16.0893,-20.17027 2.2358,-1.73429 22.2656,-26.02749 33.9102,-41.12823 3.3096,-4.29189 11.1465,-13.76315 17.4154,-21.04725 l 11.3978,-13.24381 V 1419.812 c 0,1052.2341 -0.8817,1318.0442 -4.3822,1317.888 -2.4116,-0.1077 -66.34,-21.6953 -142.0631,-47.9724 z"
       id="path7265" />
    <path
       style="fill:#d4aa00;stroke-width:3.50787"
       d="m 3805.1663,3673.4783 -660.3572,-263.3405 v -427.7877 -427.7876 l 13.1545,1.7261 c 7.235,0.9495 138.2434,17.3192 291.1299,36.3772 l 277.9754,34.6509 0.9006,243.6185 0.9006,243.6185 52.6181,13.2737 c 28.9399,7.3005 54.1954,12.7929 56.1233,12.2053 1.9278,-0.5875 -21.3557,-7.1998 -51.7412,-14.6938 l -55.2463,-13.6255 v -839.0811 c 0,-667.9827 0.8941,-839.4419 4.3849,-840.8504 2.6194,-1.057 1.9133,-1.8809 -1.754,-2.0463 -5.8064,-0.262 -6.1388,18.2427 -6.1388,341.7408 0,188.1097 -0.3946,342.0904 -0.8769,342.1793 -3.4341,0.633 -1082.2089,13.6734 -1138.3051,13.7601 l -71.0345,0.1098 0.024,-630.5404 0.024,-630.54032 25.4082,-13.65394 c 13.9746,-7.50969 50.665,-26.58278 81.5343,-42.3847 82.0245,-41.98816 170.7004,-87.59028 238.5354,-122.66818 32.7986,-16.96039 84.8905,-43.80068 115.7598,-59.64501 99.6166,-51.13049 177.5348,-91.20641 238.5355,-122.68681 86.423,-44.59997 239.2544,-123.29247 349.0334,-179.71636 57.9538,-29.78688 102.1038,-52.5495 238.5355,-122.98256 31.8339,-16.43433 78.7956,-40.39334 104.3592,-53.24223 l 46.4794,-23.36162 v 629.98671 629.98672 l -44.2949,8.3876 c -24.3621,4.6131 -42.7227,8.9115 -40.8012,9.552 1.9216,0.6405 96.4404,-17.1511 210.0419,-39.5369 113.6015,-22.3859 211.2839,-41.5223 217.0719,-42.5255 5.788,-1.0032 78.401,-15.1898 161.3622,-31.5257 82.9612,-16.336 155.5742,-30.5153 161.3622,-31.5096 8.9962,-1.5454 158.5611,-30.8459 178.9016,-35.0478 10.1058,-2.0876 22.9926,-4.5705 35.0787,-6.7587 12.6985,-2.2991 116.3807,-22.621 126.2835,-24.7518 8.6838,-1.8686 21.2878,-4.3206 35.0787,-6.8244 15.0337,-2.7294 100.3798,-19.2888 108.7441,-21.0992 18.0919,-3.9159 25.448,-5.3576 36.8327,-7.2186 6.7526,-1.1039 31.22,-5.8525 54.372,-10.5526 23.152,-4.7 46.0409,-9.2769 50.8642,-10.1708 4.8233,-0.8939 12.716,-2.4471 17.5394,-3.4516 4.8233,-1.0044 13.5053,-2.6604 19.2933,-3.6799 14.085,-2.4808 117.41,-22.6335 126.2834,-24.6305 8.0001,-1.8004 19.8266,-4.1246 35.0788,-6.8937 18.1414,-3.2936 97.7997,-18.7925 106.9901,-20.8166 9.9953,-2.2015 21.6175,-4.4863 36.8327,-7.241 12.6985,-2.2991 116.3807,-22.621 126.2835,-24.7518 3.8586,-0.8303 11.7513,-2.3437 17.5393,-3.3632 11.7013,-2.061 115.2507,-22.2128 126.2835,-24.5761 19.4349,-4.1631 25.5367,-5.3564 36.8327,-7.2029 6.7526,-1.1039 31.2201,-5.8525 54.372,-10.55259 23.152,-4.70006 46.0409,-9.27693 50.8642,-10.17084 4.8233,-0.89391 12.716,-2.44713 17.5394,-3.45157 4.8233,-1.00445 13.5053,-2.65515 19.2933,-3.66822 11.181,-1.95701 114.4367,-22.16233 126.2834,-24.71143 3.8587,-0.83031 11.7514,-2.34372 17.5394,-3.36321 11.7012,-2.06098 115.2505,-22.2128 126.2835,-24.57609 19.435,-4.16308 25.5366,-5.35635 36.8327,-7.2029 6.7526,-1.10389 31.22,-5.85253 54.372,-10.55259 23.152,-4.70006 46.0408,-9.27693 50.8642,-10.17084 4.8233,-0.89391 12.716,-2.45944 17.5393,-3.47893 4.8234,-1.0195 13.8319,-2.70086 20.0191,-3.73638 6.1869,-1.03549 29.865,-5.49186 52.6181,-9.90301 l 41.3688,-8.02026 0.8811,1480.34626 c 0.4845,814.1905 0.3624,1480.8648 -0.2701,1481.499 -0.6342,0.6339 -498.8453,-125.9951 -1107.1357,-281.3979 -608.2907,-155.4028 -1106.671,-281.8625 -1107.5119,-281.0216 -0.8409,0.8409 23.016,7.5825 53.0153,14.9813 l 54.5443,13.4524 v 316.7002 c 0,251.2268 -0.9065,316.6206 -4.3848,316.3154 -2.4117,-0.2105 -301.5457,-118.8882 -664.7422,-263.7255 z m 549.8593,-402.3858 c -11.994,-3.8411 -21.2164,-3.8411 -12.2776,0 3.8587,1.6582 10.1729,2.9684 14.0315,2.9117 5.64,-0.083 5.296,-0.6539 -1.7539,-2.9117 z m -21.9973,-5.6272 c -1.1656,-1.1656 -4.1912,-1.2902 -6.7234,-0.2768 -2.7984,1.1198 -1.9672,1.951 2.1193,2.1193 3.6979,0.1523 5.7697,-0.6767 4.6041,-1.8424 z m -13.4167,-2.8931 c -2.5519,-2.5519 -116.2036,-30.4566 -117.7494,-28.9108 -0.7996,0.7996 23.4691,7.8217 53.9306,15.6046 53.5253,13.6757 66.9972,16.4846 63.8188,13.3062 z m -129.4561,-33.5742 c -11.994,-3.8411 -21.2164,-3.8411 -12.2775,0 3.8586,1.6582 10.1728,2.9684 14.0314,2.9117 5.64,-0.083 5.296,-0.6539 -1.7539,-2.9117 z m -21.9973,-5.6272 c -1.1656,-1.1656 -4.1912,-1.2902 -6.7234,-0.2768 -2.7983,1.1198 -1.9672,1.951 2.1193,2.1193 3.6979,0.1523 5.7698,-0.6767 4.6041,-1.8424 z m -13.4167,-2.8931 c -2.5519,-2.5519 -116.2036,-30.4566 -117.7494,-28.9108 -0.7996,0.7996 23.4692,7.8217 53.9306,15.6046 53.5253,13.6757 66.9972,16.4846 63.8188,13.3062 z m -123.3904,-32.1856 c -1.1656,-1.1657 -4.1912,-1.2903 -6.7234,-0.2768 -2.7983,1.1198 -1.9671,1.951 2.1194,2.1193 3.6978,0.1523 5.7697,-0.6768 4.604,-1.8424 z m -14.0315,-3.5079 c -1.1656,-1.1656 -4.1912,-1.2902 -6.7234,-0.2768 -2.7983,1.1198 -1.9671,1.951 2.1194,2.1193 3.6978,0.1523 5.7697,-0.6767 4.604,-1.8424 z m -13.4167,-2.8931 c -2.5519,-2.5519 -116.2035,-30.4566 -117.7494,-28.9108 -0.7995,0.7996 23.4692,7.8217 53.9306,15.6046 53.5253,13.6757 66.9972,16.4846 63.8188,13.3062 z m -129.4561,-33.5742 c -11.994,-3.8411 -21.2163,-3.8411 -12.2775,0 3.8587,1.6582 10.1728,2.9684 14.0315,2.9117 5.6399,-0.083 5.2959,-0.6539 -1.754,-2.9117 z m -21.9972,-5.6272 c -1.1657,-1.1656 -4.1912,-1.2902 -6.7235,-0.2768 -2.7983,1.1198 -1.9671,1.951 2.1194,2.1193 3.6978,0.1523 5.7697,-0.6767 4.6041,-1.8424 z m -51.6681,-1723.5671 c 26.046,-5.5025 44.1992,-10.0889 40.3405,-10.1921 -3.8586,-0.1031 -28.326,4.3145 -54.372,9.817 -26.046,5.5025 -44.1992,10.0889 -40.3406,10.1921 3.8587,0.1031 28.3261,-4.3145 54.3721,-9.817 z m 60.5108,-13.0344 c -2.4116,-0.9731 -6.358,-0.9731 -8.7697,0 -2.4116,0.9731 -0.4384,1.7694 4.3849,1.7694 4.8233,0 6.7965,-0.7963 4.3848,-1.7694 z"
       id="path7304" />
    <path
       style="fill:#554400;stroke-width:3.50787"
       d="m 561.25984,2627.6131 c -67.52657,-56.5437 -122.77559,-104.1912 -122.77559,-105.8832 0,-1.692 41.58019,-5.0395 92.40042,-7.4389 l 92.40043,-4.3625 179.40719,99.9521 c 132.24769,73.6784 176.65474,99.9642 168.93619,99.9983 -5.75905,0.026 -66.50929,4.7514 -135.00053,10.502 -68.49124,5.7506 -130.8437,10.3619 -138.56102,10.2474 -13.15487,-0.1954 -21.70204,-6.6313 -136.80709,-103.0152 z"
       id="path7343" />
    <path
       style="fill:#554400;stroke-width:3.50787"
       d="m 2114.7946,3665.3167 c -156.0264,-111.163 -319.486,-227.5805 -363.2436,-258.7057 l -79.5592,-56.5913 128.6695,-25.5469 c 70.7682,-14.0508 200.2692,-39.7906 287.78,-57.1994 87.5108,-17.4088 162.678,-31.1694 167.0383,-30.5791 9.3535,1.2664 847.2412,399.1532 847.2215,402.3191 -0.01,1.1879 -40.655,15.2954 -90.3278,31.35 -49.6728,16.0547 -206.8083,66.9627 -349.1899,113.129 -142.3816,46.1663 -260.1872,83.9387 -261.7901,83.9387 -1.6029,0 -130.5723,-90.9515 -286.5987,-202.1144 z"
       id="path7419" />
    <path
       style="fill:#554400;stroke-width:3.50787"
       d="m 3430.7008,2587.1021 c -148.5585,-18.8465 -267.7012,-34.4593 -264.7616,-34.6951 55.3594,-4.4402 535.608,-46.2642 546.2685,-47.5736 l 14.9084,-1.8311 v 59.5668 59.5667 l -13.1545,-0.3837 c -7.235,-0.211 -134.7023,-15.8036 -283.2608,-34.65 z"
       id="path7458" />
    <path
       style="fill:#d4aa00;stroke-width:3.50787"
       d="m 2036.3209,3773.749 c -197.7564,-157.0474 -361.5663,-286.7237 -364.0219,-288.1696 -3.4159,-2.0113 -4.24,-17.9158 -3.5079,-67.6998 l 0.9569,-65.071 75.4193,54.0582 c 41.4806,29.7321 77.7871,55.0692 80.6811,56.3049 2.894,1.2356 9.1921,5.8796 13.9957,10.3199 4.8036,4.4403 10.0027,8.0734 11.5537,8.0734 1.5509,0 7.0758,3.9463 12.2775,8.7696 5.2018,4.8234 10.7267,8.7697 12.2776,8.7697 1.5509,0 7.0758,3.9464 12.2775,8.7697 5.2018,4.8233 11.3155,8.7697 13.5861,8.7697 2.2706,0 4.6546,1.3774 5.2977,3.0608 1.2406,3.2475 99.7591,74.1124 103.0333,74.1124 1.0585,0 6.1804,3.9464 11.3822,8.7697 5.2017,4.8233 10.7266,8.7697 12.2775,8.7697 1.5509,0 7.0758,3.9464 12.2776,8.7697 5.2017,4.8233 10.7266,8.7697 12.2775,8.7697 1.5509,0 7.0758,3.9463 12.2776,8.7697 5.2017,4.8233 10.7266,8.7696 12.2776,8.7696 1.5509,0 7.0758,3.9464 12.2775,8.7697 5.2017,4.8233 10.7266,8.7697 12.2776,8.7697 1.5509,0 7.0758,3.9464 12.2775,8.7697 5.2018,4.8233 10.7267,8.7697 12.2776,8.7697 1.5509,0 7.0758,3.9463 12.2776,8.7697 5.2017,4.8233 10.7266,8.7696 12.2775,8.7696 1.5509,0 7.0758,3.9464 12.2776,8.7697 5.2017,4.8234 10.7266,8.7697 12.2775,8.7697 1.5509,0 7.0758,3.9464 12.2776,8.7697 5.2017,4.8233 10.7266,8.7697 12.2776,8.7697 1.5509,0 7.0758,3.9463 12.2775,8.7697 5.2017,4.8233 10.7266,8.7697 12.2776,8.7697 1.5509,0 7.0758,3.9463 12.2775,8.7696 5.2018,4.8234 10.7267,8.7697 12.2776,8.7697 1.5509,0 7.0758,3.9464 12.2775,8.7697 5.2018,4.8233 11.3155,8.7697 13.5861,8.7697 2.2706,0 4.6545,1.3774 5.2977,3.0608 1.6016,4.1925 100.2536,74.1124 104.5674,74.1124 6.3979,0 7.3221,15.4104 6.332,105.576 l -0.986,89.7905 z"
       id="path7497" />
    <g
       sodipodi:type="inkscape:box3d"
       id="g7749"
       style="fill:#d4aa00"
       inkscape:perspectiveID="#perspective6517"
       inkscape:corner0="0.6880594 : 1.3189975 : 0 : 1"
       inkscape:corner7="0.26852146 : -0.16578026 : 0.25 : 1">
      <path
         sodipodi:type="inkscape:box3dside"
         id="path7761"
         style="fill:#e9e9ff;fill-rule:evenodd;stroke:none;stroke-linejoin:round"
         inkscape:box3dsidetype="11"
         d="m 2972.0451,1850.9292 821.1183,-85.3902 v 977.7786 l -821.1183,-126.2727 z"
         points="3793.1634,1765.539 3793.1634,2743.3176 2972.0451,2617.0449 2972.0451,1850.9292 " />
      <path
         sodipodi:type="inkscape:box3dside"
         id="path7751"
         style="fill:#353564;fill-rule:evenodd;stroke:none;stroke-linejoin:round"
         inkscape:box3dsidetype="6"
         d="m 2274.8015,1805.1561 v 879.5768 l 697.2436,-67.688 v -766.1157 z"
         points="2274.8015,2684.7329 2972.0451,2617.0449 2972.0451,1850.9292 2274.8015,1805.1561 " />
      <path
         sodipodi:type="inkscape:box3dside"
         id="path7759"
         style="fill:#afafde;fill-rule:evenodd;stroke:none;stroke-linejoin:round"
         inkscape:box3dsidetype="13"
         d="m 2274.8015,2684.7329 752.3448,173.5448 766.0171,-114.9601 -821.1183,-126.2727 z"
         points="3027.1463,2858.2777 3793.1634,2743.3176 2972.0451,2617.0449 2274.8015,2684.7329 " />
      <path
         sodipodi:type="inkscape:box3dside"
         id="path7753"
         style="fill:#4d4d9f;fill-rule:evenodd;stroke:none;stroke-linejoin:round"
         inkscape:box3dsidetype="5"
         d="m 2274.8015,1805.1561 752.3448,-117.3574 766.0171,77.7403 -821.1183,85.3902 z"
         points="3027.1463,1687.7987 3793.1634,1765.539 2972.0451,1850.9292 2274.8015,1805.1561 " />
      <path
         sodipodi:type="inkscape:box3dside"
         id="path7757"
         style="fill:#d7d7ff;fill-rule:evenodd;stroke:none;stroke-linejoin:round"
         inkscape:box3dsidetype="14"
         d="m 3027.1463,1687.7987 v 1170.479 l 766.0171,-114.9601 V 1765.539 Z"
         points="3027.1463,2858.2777 3793.1634,2743.3176 3793.1634,1765.539 3027.1463,1687.7987 " />
      <path
         sodipodi:type="inkscape:box3dside"
         id="path7755"
         style="fill:#8686bf;fill-rule:evenodd;stroke:none;stroke-linejoin:round"
         inkscape:box3dsidetype="3"
         d="m 2274.8015,1805.1561 752.3448,-117.3574 v 1170.479 l -752.3448,-173.5448 z"
         points="3027.1463,1687.7987 3027.1463,2858.2777 2274.8015,2684.7329 2274.8015,1805.1561 " />
    </g>
    <g
       sodipodi:type="inkscape:box3d"
       id="g7763"
       style="fill:#d4aa00"
       inkscape:perspectiveID="#perspective6517"
       inkscape:corner0="0.26852146 : 3.2217647 : 0 : 1"
       inkscape:corner7="0.17538143 : 1.3189975 : 0.25 : 1">
      <path
         sodipodi:type="inkscape:box3dside"
         id="path7775"
         style="fill:#e9e9ff;fill-rule:evenodd;stroke:none;stroke-linejoin:round"
         inkscape:box3dsidetype="11"
         d="M 3793.1634,512.49961 4041.0236,404.84545 V 1739.7634 l -247.8602,25.7756 z"
         points="4041.0236,404.84545 4041.0236,1739.7634 3793.1634,1765.539 3793.1634,512.49961 " />
      <path
         sodipodi:type="inkscape:box3dside"
         id="path7765"
         style="fill:#353564;fill-rule:evenodd;stroke:none;stroke-linejoin:round"
         inkscape:box3dsidetype="6"
         d="m 3027.1463,187.8105 v 1499.9882 l 766.0171,77.7403 V 512.49961 Z"
         points="3027.1463,1687.7987 3793.1634,1765.539 3793.1634,512.49961 3027.1463,187.8105 " />
      <path
         sodipodi:type="inkscape:box3dside"
         id="path7767"
         style="fill:#4d4d9f;fill-rule:evenodd;stroke:none;stroke-linejoin:round"
         inkscape:box3dsidetype="5"
         d="m 3027.1463,187.8105 239.8783,-156.281 773.999,373.31595 -247.8602,107.65416 z"
         points="3267.0246,31.5295 4041.0236,404.84545 3793.1634,512.49961 3027.1463,187.8105 " />
      <path
         sodipodi:type="inkscape:box3dside"
         id="path7773"
         style="fill:#afafde;fill-rule:evenodd;stroke:none;stroke-linejoin:round"
         inkscape:box3dsidetype="13"
         d="m 3027.1463,1687.7987 239.8783,-37.4184 773.999,89.3831 -247.8602,25.7756 z"
         points="3267.0246,1650.3803 4041.0236,1739.7634 3793.1634,1765.539 3027.1463,1687.7987 " />
      <path
         sodipodi:type="inkscape:box3dside"
         id="path7771"
         style="fill:#d7d7ff;fill-rule:evenodd;stroke:none;stroke-linejoin:round"
         inkscape:box3dsidetype="14"
         d="m 3267.0246,31.5295 v 1618.8508 l 773.999,89.3831 V 404.84545 Z"
         points="3267.0246,1650.3803 4041.0236,1739.7634 4041.0236,404.84545 3267.0246,31.5295 " />
      <path
         sodipodi:type="inkscape:box3dside"
         id="path7769"
         style="fill:#8686bf;fill-rule:evenodd;stroke:none;stroke-linejoin:round"
         inkscape:box3dsidetype="3"
         d="m 3027.1463,187.8105 239.8783,-156.281 v 1618.8508 l -239.8783,37.4184 z"
         points="3267.0246,31.5295 3267.0246,1650.3803 3027.1463,1687.7987 3027.1463,187.8105 " />
    </g>
    <g
       sodipodi:type="inkscape:box3d"
       id="g7791"
       style="fill:#d4aa00"
       inkscape:perspectiveID="#perspective6517"
       inkscape:corner0="-0.44442495 : 1.4417681 : 0 : 1"
       inkscape:corner7="-0.47638961 : 1.2200462 : 0.25 : 1">
      <path
         sodipodi:type="inkscape:box3dside"
         id="path7803"
         style="fill:#e9e9ff;fill-rule:evenodd;stroke:none;stroke-linejoin:round"
         inkscape:box3dsidetype="11"
         d="m 7150.1718,1264.0337 295.4366,-37.0203 v 286.6067 l -295.4366,25.6479 z"
         points="7445.6084,1227.0134 7445.6084,1513.6201 7150.1718,1539.268 7150.1718,1264.0337 " />
      <path
         sodipodi:type="inkscape:box3dside"
         id="path7793"
         style="fill:#353564;fill-rule:evenodd;stroke:none;stroke-linejoin:round"
         inkscape:box3dsidetype="6"
         d="m 6911.7575,860.86301 v 399.08539 l 238.4143,279.3196 v -275.2343 z"
         points="6911.7575,1259.9484 7150.1718,1539.268 7150.1718,1264.0337 6911.7575,860.86301 " />
      <path
         sodipodi:type="inkscape:box3dside"
         id="path7795"
         style="fill:#4d4d9f;fill-rule:evenodd;stroke:none;stroke-linejoin:round"
         inkscape:box3dsidetype="5"
         d="m 6911.7575,860.86301 421.9396,-79.30796 111.9113,445.45835 -295.4366,37.0203 z"
         points="7333.6971,781.55505 7445.6084,1227.0134 7150.1718,1264.0337 6911.7575,860.86301 " />
      <path
         sodipodi:type="inkscape:box3dside"
         id="path7801"
         style="fill:#afafde;fill-rule:evenodd;stroke:none;stroke-linejoin:round"
         inkscape:box3dsidetype="13"
         d="m 6911.7575,1259.9484 421.9396,-54.9451 111.9113,308.6168 -295.4366,25.6479 z"
         points="7333.6971,1205.0033 7445.6084,1513.6201 7150.1718,1539.268 6911.7575,1259.9484 " />
      <path
         sodipodi:type="inkscape:box3dside"
         id="path7799"
         style="fill:#d7d7ff;fill-rule:evenodd;stroke:none;stroke-linejoin:round"
         inkscape:box3dsidetype="14"
         d="m 7333.6971,781.55505 v 423.44825 l 111.9113,308.6168 v -286.6067 z"
         points="7333.6971,1205.0033 7445.6084,1513.6201 7445.6084,1227.0134 7333.6971,781.55505 " />
      <path
         sodipodi:type="inkscape:box3dside"
         id="path7797"
         style="fill:#8686bf;fill-rule:evenodd;stroke:none;stroke-linejoin:round"
         inkscape:box3dsidetype="3"
         d="m 6911.7575,860.86301 421.9396,-79.30796 v 423.44825 l -421.9396,54.9451 z"
         points="7333.6971,781.55505 7333.6971,1205.0033 6911.7575,1259.9484 6911.7575,860.86301 " />
    </g>
    <g
       sodipodi:type="inkscape:box3d"
       id="g7805"
       style="fill:#d4aa00"
       inkscape:perspectiveID="#perspective6517"
       inkscape:corner0="-0.41663745 : 1.5630932 : 0 : 1"
       inkscape:corner7="-0.46486815 : 1.4700693 : 0.25 : 1">
      <path
         sodipodi:type="inkscape:box3dside"
         id="path7817"
         style="fill:#e9e9ff;fill-rule:evenodd;stroke:none;stroke-linejoin:round"
         inkscape:box3dsidetype="11"
         d="m 6911.7577,1148.3236 424.5897,-62.1473 v 118.4819 l -424.5897,55.2902 z"
         points="7336.3474,1086.1763 7336.3474,1204.6582 6911.7577,1259.9484 6911.7577,1148.3236 " />
      <path
         sodipodi:type="inkscape:box3dside"
         id="path7807"
         style="fill:#353564;fill-rule:evenodd;stroke:none;stroke-linejoin:round"
         inkscape:box3dsidetype="6"
         d="m 6582.5275,714.76976 v 159.46155 l 329.2302,385.71709 v -111.6248 z"
         points="6582.5275,874.23131 6911.7577,1259.9484 6911.7577,1148.3236 6582.5275,714.76976 " />
      <path
         sodipodi:type="inkscape:box3dside"
         id="path7809"
         style="fill:#4d4d9f;fill-rule:evenodd;stroke:none;stroke-linejoin:round"
         inkscape:box3dsidetype="5"
         d="m 6582.5275,714.76976 593.2741,-130.25662 160.5458,501.66316 -424.5897,62.1473 z"
         points="7175.8016,584.51314 7336.3474,1086.1763 6911.7577,1148.3236 6582.5275,714.76976 " />
      <path
         sodipodi:type="inkscape:box3dside"
         id="path7815"
         style="fill:#afafde;fill-rule:evenodd;stroke:none;stroke-linejoin:round"
         inkscape:box3dsidetype="13"
         d="m 6582.5275,874.23131 593.2741,-115.88457 160.5458,446.31146 -424.5897,55.2902 z"
         points="7175.8016,758.34674 7336.3474,1204.6582 6911.7577,1259.9484 6582.5275,874.23131 " />
      <path
         sodipodi:type="inkscape:box3dside"
         id="path7813"
         style="fill:#d7d7ff;fill-rule:evenodd;stroke:none;stroke-linejoin:round"
         inkscape:box3dsidetype="14"
         d="m 7175.8016,584.51314 v 173.8336 l 160.5458,446.31146 v -118.4819 z"
         points="7175.8016,758.34674 7336.3474,1204.6582 7336.3474,1086.1763 7175.8016,584.51314 " />
      <path
         sodipodi:type="inkscape:box3dside"
         id="path7811"
         style="fill:#8686bf;fill-rule:evenodd;stroke:none;stroke-linejoin:round"
         inkscape:box3dsidetype="3"
         d="m 6582.5275,714.76976 593.2741,-130.25662 v 173.8336 l -593.2741,115.88457 z"
         points="7175.8016,584.51314 7175.8016,758.34674 6582.5275,874.23131 6582.5275,714.76976 " />
    </g>
    <g
       sodipodi:type="inkscape:box3d"
       id="g7833"
       style="fill:#d4aa00"
       inkscape:perspectiveID="#perspective6517"
       inkscape:corner0="1.9928159 : -2.3275436 : 0 : 1"
       inkscape:corner7="1.3023615 : -3.6265475 : 0.25 : 1">
      <path
         sodipodi:type="inkscape:box3dside"
         id="path7845"
         style="fill:#e9e9ff;fill-rule:evenodd;stroke:none;stroke-linejoin:round"
         inkscape:box3dsidetype="11"
         d="m 1776.234,3099.7831 480.4996,254.2263 v 508.942 L 1776.234,3500.3621 Z"
         points="2256.7336,3354.0094 2256.7336,3862.9514 1776.234,3500.3621 1776.234,3099.7831 " />
      <path
         sodipodi:type="inkscape:box3dside"
         id="path7835"
         style="fill:#353564;fill-rule:evenodd;stroke:none;stroke-linejoin:round"
         inkscape:box3dsidetype="6"
         d="m 1283.0726,3178.2864 v 434.0407 l 493.1614,-111.965 v -400.579 z"
         points="1283.0726,3612.3271 1776.234,3500.3621 1776.234,3099.7831 1283.0726,3178.2864 " />
      <path
         sodipodi:type="inkscape:box3dside"
         id="path7843"
         style="fill:#afafde;fill-rule:evenodd;stroke:none;stroke-linejoin:round"
         inkscape:box3dsidetype="13"
         d="m 1283.0726,3612.3271 384.7802,435.5378 588.8808,-184.9135 -480.4996,-362.5893 z"
         points="1667.8528,4047.8649 2256.7336,3862.9514 1776.234,3500.3621 1283.0726,3612.3271 " />
      <path
         sodipodi:type="inkscape:box3dside"
         id="path7837"
         style="fill:#4d4d9f;fill-rule:evenodd;stroke:none;stroke-linejoin:round"
         inkscape:box3dsidetype="5"
         d="m 1283.0726,3178.2864 384.7802,305.3735 588.8808,-129.6505 -480.4996,-254.2263 z"
         points="1667.8528,3483.6599 2256.7336,3354.0094 1776.234,3099.7831 1283.0726,3178.2864 " />
      <path
         sodipodi:type="inkscape:box3dside"
         id="path7841"
         style="fill:#d7d7ff;fill-rule:evenodd;stroke:none;stroke-linejoin:round"
         inkscape:box3dsidetype="14"
         d="m 1667.8528,3483.6599 v 564.205 l 588.8808,-184.9135 v -508.942 z"
         points="1667.8528,4047.8649 2256.7336,3862.9514 2256.7336,3354.0094 1667.8528,3483.6599 " />
      <path
         sodipodi:type="inkscape:box3dside"
         id="path7839"
         style="fill:#8686bf;fill-rule:evenodd;stroke:none;stroke-linejoin:round"
         inkscape:box3dsidetype="3"
         d="m 1283.0726,3178.2864 384.7802,305.3735 v 564.205 l -384.7802,-435.5378 z"
         points="1667.8528,3483.6599 1667.8528,4047.8649 1283.0726,3612.3271 1283.0726,3178.2864 " />
    </g>
  </g>
</svg>
